<mxfile host="Electron" agent="Mozilla/5.0 (Macintosh; Intel Mac OS X 10_15_7) AppleWebKit/537.36 (KHTML, like Gecko) draw.io/27.0.9 Chrome/134.0.6998.205 Electron/35.4.0 Safari/537.36" version="27.0.9">
  <diagram name="AWS-Architecture" id="aws-arch">
    <mxGraphModel dx="1636" dy="973" grid="1" gridSize="10" guides="1" tooltips="1" connect="1" arrows="1" fold="1" page="1" pageScale="1" pageWidth="1169" pageHeight="827" math="0" shadow="0">
      <root>
        <mxCell id="0" />
        <mxCell id="1" parent="0" />
        <mxCell id="aws-cloud" value="AWS Cloud" style="sketch=0;outlineConnect=0;gradientColor=none;html=1;whiteSpace=wrap;fontSize=12;fontStyle=1;shape=mxgraph.aws4.group;grIcon=mxgraph.aws4.group_aws_cloud;strokeColor=#232F3E;fillColor=none;verticalAlign=top;align=left;spacingLeft=30;fontColor=#232F3E;dashed=0;" parent="1" vertex="1">
          <mxGeometry x="40" y="40" width="1080" height="740" as="geometry" />
        </mxCell>
        <mxCell id="region" value="ap-northeast-1 (Tokyo)" style="sketch=0;outlineConnect=0;gradientColor=none;html=1;whiteSpace=wrap;fontSize=11;fontStyle=1;shape=mxgraph.aws4.group;grIcon=mxgraph.aws4.group_region;strokeColor=#CD9500;fillColor=none;verticalAlign=top;align=left;spacingLeft=20;fontColor=#CD9500;dashed=1;" parent="1" vertex="1">
          <mxGeometry x="70" y="80" width="1020" height="680" as="geometry" />
        </mxCell>
        <mxCell id="vpc" value="VPC&#xa;dify-dev-vpc&#xa;10.0.0.0/16" style="sketch=0;outlineConnect=0;gradientColor=none;html=1;whiteSpace=wrap;fontSize=11;fontStyle=1;shape=mxgraph.aws4.group;grIcon=mxgraph.aws4.group_vpc;strokeColor=#248814;fillColor=none;verticalAlign=top;align=left;spacingLeft=20;fontColor=#248814;dashed=0;" parent="1" vertex="1">
          <mxGeometry x="100" y="120" width="960" height="620" as="geometry" />
        </mxCell>
        <mxCell id="igw" value="Internet Gateway" style="sketch=0;outlineConnect=0;fontColor=#232F3E;gradientColor=none;fillColor=#8C4FFF;strokeColor=none;dashed=0;verticalLabelPosition=bottom;verticalAlign=top;align=center;html=1;fontSize=12;fontStyle=0;aspect=fixed;pointerEvents=1;shape=mxgraph.aws4.internet_gateway;" parent="1" vertex="1">
          <mxGeometry x="540" y="20" width="60" height="60" as="geometry" />
        </mxCell>
        <mxCell id="az1" value="Availability Zone: ap-northeast-1a" style="sketch=0;outlineConnect=0;gradientColor=none;html=1;whiteSpace=wrap;fontSize=10;fontStyle=1;shape=mxgraph.aws4.group;grIcon=mxgraph.aws4.group_availability_zone;strokeColor=#545B64;fillColor=none;verticalAlign=top;spacingTop=30;align=left;spacingLeft=10;fontColor=#545B64;dashed=1;" parent="1" vertex="1">
          <mxGeometry x="140" y="180" width="400" height="520" as="geometry" />
        </mxCell>
        <mxCell id="az2" value="Availability Zone: ap-northeast-1c" style="sketch=0;outlineConnect=0;gradientColor=none;html=1;whiteSpace=wrap;fontSize=10;fontStyle=1;shape=mxgraph.aws4.group;grIcon=mxgraph.aws4.group_availability_zone;strokeColor=#545B64;fillColor=none;verticalAlign=top;spacingTop=30;align=left;spacingLeft=10;fontColor=#545B64;dashed=1;" parent="1" vertex="1">
          <mxGeometry x="580" y="180" width="400" height="520" as="geometry" />
        </mxCell>
        <mxCell id="public-subnet-1" value="Public Subnet&#xa;10.0.0.0/24" style="sketch=0;outlineConnect=0;gradientColor=none;html=1;whiteSpace=wrap;fontSize=10;fontStyle=1;shape=mxgraph.aws4.group;grIcon=mxgraph.aws4.group_security_group;strokeColor=#248814;fillColor=#E9F3E6;verticalAlign=top;align=left;spacingLeft=10;fontColor=#248814;dashed=0;" parent="1" vertex="1">
          <mxGeometry x="160" y="220" width="160" height="120" as="geometry" />
        </mxCell>
        <mxCell id="public-subnet-2" value="Public Subnet&#xa;10.0.1.0/24" style="sketch=0;outlineConnect=0;gradientColor=none;html=1;whiteSpace=wrap;fontSize=10;fontStyle=1;shape=mxgraph.aws4.group;grIcon=mxgraph.aws4.group_security_group;strokeColor=#248814;fillColor=#E9F3E6;verticalAlign=top;align=left;spacingLeft=10;fontColor=#248814;dashed=0;" parent="1" vertex="1">
          <mxGeometry x="600" y="220" width="160" height="120" as="geometry" />
        </mxCell>
        <mxCell id="nat-gw" value="NAT Gateway" style="sketch=0;outlineConnect=0;fontColor=#232F3E;gradientColor=none;fillColor=#8C4FFF;strokeColor=none;dashed=0;verticalLabelPosition=bottom;verticalAlign=top;align=center;html=1;fontSize=12;fontStyle=0;aspect=fixed;pointerEvents=1;shape=mxgraph.aws4.nat_gateway;" parent="1" vertex="1">
          <mxGeometry x="210" y="260" width="60" height="60" as="geometry" />
        </mxCell>
        <mxCell id="private-subnet-1" value="Private Subnet (with NAT)&#xa;10.0.2.0/24" style="sketch=0;outlineConnect=0;gradientColor=none;html=1;whiteSpace=wrap;fontSize=10;fontStyle=1;shape=mxgraph.aws4.group;grIcon=mxgraph.aws4.group_security_group;strokeColor=#FF9900;fillColor=#FCF3E6;verticalAlign=top;align=left;spacingLeft=10;fontColor=#FF9900;dashed=0;" parent="1" vertex="1">
          <mxGeometry x="160" y="360" width="160" height="160" as="geometry" />
        </mxCell>
        <mxCell id="private-subnet-2" value="Private Subnet (with NAT)&#xa;10.0.3.0/24" style="sketch=0;outlineConnect=0;gradientColor=none;html=1;whiteSpace=wrap;fontSize=10;fontStyle=1;shape=mxgraph.aws4.group;grIcon=mxgraph.aws4.group_security_group;strokeColor=#FF9900;fillColor=#FCF3E6;verticalAlign=top;align=left;spacingLeft=10;fontColor=#FF9900;dashed=0;" parent="1" vertex="1">
          <mxGeometry x="600" y="360" width="160" height="160" as="geometry" />
        </mxCell>
        <mxCell id="isolated-subnet-1" value="Isolated Subnet&#xa;10.0.4.0/24" style="sketch=0;outlineConnect=0;gradientColor=none;html=1;whiteSpace=wrap;fontSize=10;fontStyle=1;shape=mxgraph.aws4.group;grIcon=mxgraph.aws4.group_security_group;strokeColor=#C73B00;fillColor=#FCE4EC;verticalAlign=top;align=left;spacingLeft=10;fontColor=#C73B00;dashed=0;" parent="1" vertex="1">
          <mxGeometry x="160" y="540" width="160" height="120" as="geometry" />
        </mxCell>
        <mxCell id="isolated-subnet-2" value="Isolated Subnet&#xa;10.0.5.0/24" style="sketch=0;outlineConnect=0;gradientColor=none;html=1;whiteSpace=wrap;fontSize=10;fontStyle=1;shape=mxgraph.aws4.group;grIcon=mxgraph.aws4.group_security_group;strokeColor=#C73B00;fillColor=#FCE4EC;verticalAlign=top;align=left;spacingLeft=10;fontColor=#C73B00;dashed=0;" parent="1" vertex="1">
          <mxGeometry x="600" y="540" width="160" height="120" as="geometry" />
        </mxCell>
        <mxCell id="windows-vm" value="Windows VM&#xa;t3.medium&#xa;Windows Server 2022 JP&#xa;50GB GP3 Encrypted&#xa;Private IP: 10.0.2.x" style="sketch=0;outlineConnect=0;fontColor=#232F3E;gradientColor=none;fillColor=#ED7100;strokeColor=none;dashed=0;verticalLabelPosition=bottom;verticalAlign=top;align=center;html=1;fontSize=10;fontStyle=0;aspect=fixed;pointerEvents=1;shape=mxgraph.aws4.ec2;" parent="1" vertex="1">
          <mxGeometry x="200" y="400" width="50" height="50" as="geometry" />
        </mxCell>
        <mxCell id="linux-vm" value="Linux VM&#xa;t3.large&#xa;Ubuntu 22.04&#xa;100GB GP3 Encrypted&#xa;Private IP: 10.0.3.x" style="sketch=0;outlineConnect=0;fontColor=#232F3E;gradientColor=none;fillColor=#ED7100;strokeColor=none;dashed=0;verticalLabelPosition=bottom;verticalAlign=top;align=center;html=1;fontSize=10;fontStyle=0;aspect=fixed;pointerEvents=1;shape=mxgraph.aws4.ec2;" parent="1" vertex="1">
          <mxGeometry x="640" y="400" width="50" height="50" as="geometry" />
        </mxCell>
        <mxCell id="vpc-endpoints" value="VPC Endpoints&#xa;- SSM&#xa;- SSM Messages&#xa;- EC2 Messages" style="sketch=0;outlineConnect=0;fontColor=#232F3E;gradientColor=none;fillColor=#8C4FFF;strokeColor=none;dashed=0;verticalLabelPosition=bottom;verticalAlign=top;align=center;html=1;fontSize=10;fontStyle=0;aspect=fixed;pointerEvents=1;shape=mxgraph.aws4.vpc_endpoint;" parent="1" vertex="1">
          <mxGeometry x="820" y="280" width="60" height="60" as="geometry" />
        </mxCell>
        <mxCell id="windows-sg" value="Windows Security Group&#xa;- Inbound: RDP (3389) from VPC&#xa;- Outbound: All" style="rounded=1;whiteSpace=wrap;html=1;fillColor=#dae8fc;strokeColor=#6c8ebf;fontSize=9;" parent="1" vertex="1">
          <mxGeometry x="340" y="380" width="180" height="50" as="geometry" />
        </mxCell>
        <mxCell id="linux-sg" value="Linux Security Group&#xa;- Inbound: SSH (22), HTTP (80) from VPC&#xa;- Outbound: All" style="rounded=1;whiteSpace=wrap;html=1;fillColor=#d5e8d4;strokeColor=#82b366;fontSize=9;" parent="1" vertex="1">
          <mxGeometry x="780" y="380" width="180" height="50" as="geometry" />
        </mxCell>
        <mxCell id="iam-role" value="IAM Role&#xa;EC2InstanceRole&#xa;- AmazonSSMManagedInstanceCore" style="sketch=0;outlineConnect=0;fontColor=#232F3E;gradientColor=none;fillColor=#759C3E;strokeColor=none;dashed=0;verticalLabelPosition=bottom;verticalAlign=top;align=center;html=1;fontSize=10;fontStyle=0;aspect=fixed;pointerEvents=1;shape=mxgraph.aws4.role;" parent="1" vertex="1">
          <mxGeometry x="420" y="500" width="50" height="35" as="geometry" />
        </mxCell>
        <mxCell id="ssm-params" value="SSM Parameter Store&#xa;- Windows Admin Password&#xa;- Linux Admin Password" style="sketch=0;outlineConnect=0;fontColor=#232F3E;gradientColor=none;fillColor=#759C3E;strokeColor=none;dashed=0;verticalLabelPosition=bottom;verticalAlign=top;align=center;html=1;fontSize=10;fontStyle=0;aspect=fixed;pointerEvents=1;shape=mxgraph.aws4.systems_manager_parameter_store;" parent="1" vertex="1">
          <mxGeometry x="420" y="580" width="50" height="50" as="geometry" />
        </mxCell>
        <mxCell id="route-table-public" value="Public Route Table&#xa;0.0.0.0/0 â†’ IGW" style="rounded=1;whiteSpace=wrap;html=1;fillColor=#fff2cc;strokeColor=#d6b656;fontSize=9;" parent="1" vertex="1">
          <mxGeometry x="360" y="240" width="140" height="30" as="geometry" />
        </mxCell>
        <mxCell id="route-table-private" value="Private Route Table&#xa;0.0.0.0/0 â†’ NAT Gateway" style="rounded=1;whiteSpace=wrap;html=1;fillColor=#fff2cc;strokeColor=#d6b656;fontSize=9;" parent="1" vertex="1">
          <mxGeometry x="360" y="450" width="140" height="30" as="geometry" />
        </mxCell>
        <mxCell id="connection-igw-vpc" style="endArrow=classic;html=1;exitX=0.5;exitY=1;exitDx=0;exitDy=0;entryX=0.5;entryY=0;entryDx=0;entryDy=0;strokeColor=#000000;" parent="1" source="igw" target="public-subnet-1" edge="1">
          <mxGeometry width="50" height="50" relative="1" as="geometry">
            <mxPoint x="570" y="90" as="sourcePoint" />
            <mxPoint x="240" y="220" as="targetPoint" />
            <Array as="points">
              <mxPoint x="570" y="150" />
              <mxPoint x="240" y="150" />
            </Array>
          </mxGeometry>
        </mxCell>
        <mxCell id="connection-nat-private" style="endArrow=classic;html=1;exitX=0.5;exitY=1;exitDx=0;exitDy=0;entryX=0.5;entryY=0;entryDx=0;entryDy=0;strokeColor=#FF9900;" parent="1" source="nat-gw" target="private-subnet-1" edge="1">
          <mxGeometry width="50" height="50" relative="1" as="geometry">
            <mxPoint x="240" y="330" as="sourcePoint" />
            <mxPoint x="240" y="360" as="targetPoint" />
          </mxGeometry>
        </mxCell>
        <mxCell id="connection-vm-sg1" style="endArrow=classic;html=1;exitX=1;exitY=0.5;exitDx=0;exitDy=0;entryX=0;entryY=0.5;entryDx=0;entryDy=0;strokeColor=#6c8ebf;dashed=1;" parent="1" source="windows-vm" target="windows-sg" edge="1">
          <mxGeometry width="50" height="50" relative="1" as="geometry">
            <mxPoint x="250" y="420" as="sourcePoint" />
            <mxPoint x="340" y="405" as="targetPoint" />
          </mxGeometry>
        </mxCell>
        <mxCell id="connection-vm-sg2" style="endArrow=classic;html=1;exitX=1;exitY=0.5;exitDx=0;exitDy=0;entryX=0;entryY=0.5;entryDx=0;entryDy=0;strokeColor=#82b366;dashed=1;" parent="1" source="linux-vm" target="linux-sg" edge="1">
          <mxGeometry width="50" height="50" relative="1" as="geometry">
            <mxPoint x="690" y="420" as="sourcePoint" />
            <mxPoint x="780" y="405" as="targetPoint" />
          </mxGeometry>
        </mxCell>
        <mxCell id="title" value="Dify CDK AWS Architecture Diagram" style="text;html=1;strokeColor=none;fillColor=none;align=center;verticalAlign=middle;whiteSpace=wrap;rounded=0;fontSize=16;fontStyle=1;" parent="1" vertex="1">
          <mxGeometry x="450" y="10" width="300" height="30" as="geometry" />
        </mxCell>
        <mxCell id="info-box" value="Network Information:&#xa;â€¢ VPC CIDR: 10.0.0.0/16&#xa;â€¢ Public Subnets: 10.0.0.0/24, 10.0.1.0/24&#xa;â€¢ Private Subnets: 10.0.2.0/24, 10.0.3.0/24&#xa;â€¢ Isolated Subnets: 10.0.4.0/24, 10.0.5.0/24&#xa;â€¢ NAT Gateway: 1 instance (AZ-1a)&#xa;â€¢ VPC Endpoints: SSM, SSM Messages, EC2 Messages&#xa;&#xa;Compute Resources:&#xa;â€¢ Windows VM: t3.medium, 50GB GP3&#xa;â€¢ Linux VM: t3.large, 100GB GP3&#xa;â€¢ Both instances in private subnets&#xa;â€¢ Fleet Manager access via SSM" style="rounded=1;whiteSpace=wrap;html=1;fillColor=#f8cecc;strokeColor=#b85450;fontSize=10;align=left;verticalAlign=top;" parent="1" vertex="1">
          <mxGeometry x="810" y="490" width="280" height="200" as="geometry" />
        </mxCell>
      </root>
    </mxGraphModel>
  </diagram>
</mxfile>
